<svg class="thumb" width="1000" height="1000" viewBox="0,0,600,600" xmlns="http://www.w3.org/2000/svg" xmlns:inkscape="http://www.inkscape.org/namespaces/inkscape" xmlns:sodipodi="http://sodipodi.sourceforge.net/DTD/sodipodi-0.dtd" xmlns:xlink="http://www.w3.org/1999/xlink" xmlns:ns1="http://www.inkscape.org/namespaces/inkscape" xmlns:sketch="http://www.bohemiancoding.com/sketch/ns">
  <defs>
    <linearGradient x1="0" y1="0.5" x2="1" y2="0.5" id="linearGradientSjzkhy3nh4">
      <stop offset="0%" stop-color="#ffffff" stop-opacity="0"></stop>
      <stop offset="0%" stop-color="#ffffff" stop-opacity="0"></stop>
      <stop offset="100%" stop-color="#ffffff" stop-opacity="0"></stop>
    </linearGradient>
  </defs>
  <g elementtype="background">
    <rect x="0" y="0" width="600" height="600" fill="url('#linearGradientSjzkhy3nh4')"></rect>
  </g>
  <g transform="matrix(0.4114,0,0,0.4114,-64.0533,219.4443)">
    <g transform="matrix(2.2864,0,0,2.2864,322.6891,105.3993)">
      <svg width="68.26599999999999" height="88" viewBox="15.866999999999997,6,68.26599999999999,88">
        <defs>
          <linearGradient x1="0" y1="0.5" x2="1" y2="0.5" id="linearGradientSjzkhy3nha">
            <stop offset="0%" stop-color="#3a3a3a"></stop>
            <stop offset="100%" stop-color="#3a3a3a"></stop>
          </linearGradient>
        </defs>
        <g></g>
        <g></g>
        <g></g>
        <g></g>
        <g></g>
        <g></g>
        <g></g>
        <g></g>
        <g></g>
        <g></g>
        <g></g>
        <g></g>
        <g></g>
        <g>
          <path d="M50,89c-0.325,0-0.653-0.106-0.923-0.316c-1.151-0.902-28.21-22.333-28.21-48.551C20.867,24.069,33.936,11,50,11  s29.133,13.069,29.133,29.133c0,26.218-27.059,47.648-28.21,48.551C50.653,88.894,50.325,89,50,89z M50,14  c-14.411,0-26.133,11.722-26.133,26.133c0,22.131,21.387,41.42,26.133,45.425c4.746-4.011,26.133-23.314,26.133-45.425  C76.133,25.722,64.411,14,50,14z M50,54.641c-8.001,0-14.508-6.507-14.508-14.508S41.999,25.622,50,25.622  s14.508,6.51,14.508,14.511S58.001,54.641,50,54.641z M50,28.622c-6.346,0-11.508,5.165-11.508,11.511  c0,6.346,5.162,11.508,11.508,11.508c6.346,0,11.508-5.162,11.508-11.508C61.508,33.787,56.346,28.622,50,28.622z" stroke="none" fill="url('#linearGradientSjzkhy3nha')" style=""></path>
        </g>
      </svg>
    </g>
    <g transform="matrix(1.2898,0,0,1.2898,1127.9808,172.5507)">
      <svg width="10.33254328" height="10.3325433" viewBox="-5.00000059,-5,10.33254328,10.3325433">
        <defs>
          <linearGradient x1="0" y1="0.5" x2="1" y2="0.5" id="linearGradientSjzkhy3nhg">
            <stop offset="0%" stop-color="#000000"></stop>
            <stop offset="100%" stop-color="#000000"></stop>
          </linearGradient>
        </defs>
        <g></g>
        <g></g>
        <g>
          <path class="fil0" d="M0.152147 0.32174l0.0282444 0 0.00757883 -0.0510439c0.0143309,-0.00347248 0.0241066,-0.00749615 0.0367721,-0.0152403l0.0414651 0.0307366 0.0199845 -0.0199845 -0.0307366 -0.0414651c0.00746072,-0.0122127 0.0121852,-0.0237759 0.0154411,-0.0377721l0.0508431 -0.00755127 0 -0.0282444 -0.0512604 -0.0076182c-0.00342524,-0.0135395 -0.00770088,-0.0237798 -0.0150277,-0.0357681l0.0307405 -0.0414651 -0.0199806 -0.0199766 -0.0414611 0.0307405c-0.0121734,-0.00743316 -0.0228467,-0.0118702 -0.03678,-0.0152482l-0.00757883 -0.051036 -0.0282444 0 -0.00757883 0.051036c-0.0143702,0.00348429 -0.024079,0.00748828 -0.03678,0.0152482l-0.0414651 -0.0307405 -0.0199766 0.0199766 0.0307405 0.0414651c-0.00741741,0.0121379 -0.0115198,0.0219018 -0.0150317,0.035776l-0.0512526 0.00761033 0 0.0282444 0.0508392 0.00755127c0.00342917,0.0147915 0.00757096,0.024894 0.0154372,0.0377721l-0.0307326 0.0414651 0.0199845 0.0199845 0.0414611 -0.0307366c0.0120789,0.00738198 0.0229491,0.011882 0.036776,0.0152403l0.00757883 0.0510439zm-0.00929932 0.0108033l-0.00790167 -0.0531581c-0.00876782,-0.00241735 -0.0186026,-0.00646858 -0.0265279,-0.0109804l-0.043158 0.0319886 -0.0331146 -0.0331146 0.0319846 -0.0431619c-0.00488982,-0.00863396 -0.00870089,-0.0179569 -0.0112757,-0.0275397l-0.052855 -0.0078623 0 -0.0468431 0.053418 -0.0079371c0.00255121,-0.00892924 0.00613787,-0.0174372 0.0107206,-0.02552l-0.0319925 -0.043158 0.0331106 -0.0331106 0.043158 0.0319925c0.00841349,-0.00479927 0.017201,-0.00841742 0.0265318,-0.0109844l0.00790167 -0.0531542 0.0468391 0 0.00790561 0.0531542c0.00877176,0.00241341 0.0185947,0.00647645 0.0265318,0.0109844l0.043158 -0.0319925 0.0331106 0.0331106 -0.0319925 0.043158c0.0043347,0.00766545 0.0082875,0.0170278 0.0107167,0.0255161l0.0534258 0.00794498 0 0.0468391 -0.0528628 0.0078623c-0.00246853,0.00918515 -0.00656307,0.0192522 -0.0112757,0.0275397l0.0319886 0.0431619 -0.0331146 0.0331146 -0.0431619 -0.0319886c-0.00846073,0.00479927 -0.0171577,0.00840167 -0.0265239,0.0109804l-0.00790561 0.0531581 -0.0468391 0z" stroke="none" fill="url('#linearGradientSjzkhy3nhg')" style=""></path>
        </g>
      </svg>
    </g>
    <g transform="matrix(1.2898,0,0,1.2898,1127.9808,172.5507)">
      <svg width="10.33254328" height="10.3325433" viewBox="-5.00000059,-5,10.33254328,10.3325433">
        <defs>
          <linearGradient x1="0" y1="0.5" x2="1" y2="0.5" id="linearGradientSjzkhy3nhm">
            <stop offset="0%" stop-color="#000000"></stop>
            <stop offset="100%" stop-color="#000000"></stop>
          </linearGradient>
        </defs>
        <g></g>
        <g></g>
        <g>
          <path class="fil0" d="M0.152147 0.32174l0.0282444 0 0.00757883 -0.0510439c0.0143309,-0.00347248 0.0241066,-0.00749615 0.0367721,-0.0152403l0.0414651 0.0307366 0.0199845 -0.0199845 -0.0307366 -0.0414651c0.00746072,-0.0122127 0.0121852,-0.0237759 0.0154411,-0.0377721l0.0508431 -0.00755127 0 -0.0282444 -0.0512604 -0.0076182c-0.00342524,-0.0135395 -0.00770088,-0.0237798 -0.0150277,-0.0357681l0.0307405 -0.0414651 -0.0199806 -0.0199766 -0.0414611 0.0307405c-0.0121734,-0.00743316 -0.0228467,-0.0118702 -0.03678,-0.0152482l-0.00757883 -0.051036 -0.0282444 0 -0.00757883 0.051036c-0.0143702,0.00348429 -0.024079,0.00748828 -0.03678,0.0152482l-0.0414651 -0.0307405 -0.0199766 0.0199766 0.0307405 0.0414651c-0.00741741,0.0121379 -0.0115198,0.0219018 -0.0150317,0.035776l-0.0512526 0.00761033 0 0.0282444 0.0508392 0.00755127c0.00342917,0.0147915 0.00757096,0.024894 0.0154372,0.0377721l-0.0307326 0.0414651 0.0199845 0.0199845 0.0414611 -0.0307366c0.0120789,0.00738198 0.0229491,0.011882 0.036776,0.0152403l0.00757883 0.0510439zm-0.00929932 0.0108033l-0.00790167 -0.0531581c-0.00876782,-0.00241735 -0.0186026,-0.00646858 -0.0265279,-0.0109804l-0.043158 0.0319886 -0.0331146 -0.0331146 0.0319846 -0.0431619c-0.00488982,-0.00863396 -0.00870089,-0.0179569 -0.0112757,-0.0275397l-0.052855 -0.0078623 0 -0.0468431 0.053418 -0.0079371c0.00255121,-0.00892924 0.00613787,-0.0174372 0.0107206,-0.02552l-0.0319925 -0.043158 0.0331106 -0.0331106 0.043158 0.0319925c0.00841349,-0.00479927 0.017201,-0.00841742 0.0265318,-0.0109844l0.00790167 -0.0531542 0.0468391 0 0.00790561 0.0531542c0.00877176,0.00241341 0.0185947,0.00647645 0.0265318,0.0109844l0.043158 -0.0319925 0.0331106 0.0331106 -0.0319925 0.043158c0.0043347,0.00766545 0.0082875,0.0170278 0.0107167,0.0255161l0.0534258 0.00794498 0 0.0468391 -0.0528628 0.0078623c-0.00246853,0.00918515 -0.00656307,0.0192522 -0.0112757,0.0275397l0.0319886 0.0431619 -0.0331146 0.0331146 -0.0431619 -0.0319886c-0.00846073,0.00479927 -0.0171577,0.00840167 -0.0265239,0.0109804l-0.00790561 0.0531581 -0.0468391 0z" stroke="none" fill="url('#linearGradientSjzkhy3nhm')" style=""></path>
        </g>
      </svg>
    </g>
    <g transform="matrix(4.6157,0,0,4.6157,205.5662,0.1402)">
      <svg width="84.79297" height="84.79393" viewBox="2.603490000000013,2.603040000000009,84.79297,84.79393">
        <defs>
          <linearGradient x1="0" y1="0.5" x2="1" y2="0.5" id="linearGradientSjzkhy3nhs">
            <stop offset="0%" stop-color="#306998"></stop>
            <stop offset="100%" stop-color="#306998"></stop>
          </linearGradient>
        </defs>
        <g></g>
        <g></g>
        <g>
          <path d="M11.38086,51.94287h5.79883c1.15186,0,2.6582,0.8623,3.26074,1.85693l0.97119,2.34424  c0.27637,1.13086-0.17871,2.80566-0.9917,3.61914l-4.10156,4.10059c-1.47217,1.47217-1.47217,3.86816,0,5.3418l4.47656,4.47656  c0.71143,0.71143,1.65967,1.10303,2.6709,1.10352h0.00049c1.01123,0,1.95996-0.39209,2.67041-1.10352l4.10107-4.10107  c0.81348-0.81396,2.48682-1.26758,3.61963-0.99219l2.34326,0.97119c0.99463,0.60254,1.85693,2.10889,1.85693,3.26074v5.79883  c0,2.08301,1.69434,3.77734,3.77734,3.77734h6.33105c2.08301,0,3.77734-1.69434,3.77734-3.77734V72.8208  c0-1.15186,0.86182-2.6582,1.85693-3.26074l2.34424-0.97119c1.12598-0.2793,2.8042,0.17822,3.61816,0.99268l4.10107,4.1001  c0.71094,0.71191,1.65918,1.10352,2.67041,1.104c0.00049,0,0.00049,0,0.00098,0c1.01074,0,1.95947-0.39209,2.6709-1.10352  l4.47803-4.47705c1.47119-1.47363,1.47119-3.87012-0.00049-5.34131l-4.10352-4.10205  c-0.81348-0.8125-1.26807-2.48633-0.99072-3.61719l0.97168-2.34473c0.60303-0.99463,2.1084-1.85693,3.25928-1.85693h5.79883  c2.08301,0,3.77734-1.69434,3.77734-3.77734v-6.33105c0-2.08301-1.69434-3.77734-3.77734-3.77734h-5.79883  c-1.15088,0-2.65674-0.8623-3.25928-1.85742l-0.97217-2.34375c-0.27832-1.12891,0.17725-2.80371,0.99316-3.61914l4.10205-4.1001  c1.47119-1.47363,1.47119-3.87012-0.00049-5.34131l-4.47754-4.47803c-1.42383-1.42188-3.9209-1.42236-5.3418,0.00049  l-4.1001,4.10107c-0.81494,0.81494-2.48926,1.27051-3.61914,0.99268l-2.34473-0.97168  c-0.99512-0.60254-1.85693-2.1084-1.85693-3.25977v-5.7998c0-2.08301-1.69434-3.77734-3.77734-3.77734h-6.33105  c-2.08301,0-3.77734,1.69434-3.77734,3.77734v5.7998c0,1.15137-0.8623,2.65723-1.85693,3.25977l-2.34326,0.97119  c-1.13135,0.27783-2.80615-0.17725-3.62012-0.9917l-4.10059-4.10156c-1.47168-1.47266-3.86816-1.47168-5.3418,0l-4.47656,4.47754  c-1.47217,1.47217-1.47217,3.86816,0,5.3418l4.10107,4.09961c0.81348,0.81396,1.26855,2.48926,0.99219,3.62012l-0.97119,2.34326  c-0.60254,0.99463-2.10889,1.85693-3.26074,1.85693h-5.79883c-2.08301,0-3.77734,1.69434-3.77734,3.77734v6.33105  C7.60352,50.24854,9.29785,51.94287,11.38086,51.94287z M9.60352,41.83447c0-0.97998,0.79736-1.77734,1.77734-1.77734h5.79883  c1.88281,0,4.09082-1.27979,5.02588-2.91309l1.08057-2.58594l0.0415-0.12158c0.49219-1.81689-0.16357-4.28271-1.49365-5.61426  l-4.10107-4.09912c-0.69287-0.69336-0.69287-1.8208-0.00049-2.51367l4.47656-4.47705  c0.69287-0.69287,1.8208-0.69336,2.51367-0.00049l4.10059,4.10156c1.33154,1.33154,3.79932,1.98779,5.61475,1.49316l2.59229-1.06543  l0.11426-0.05615c1.6333-0.93506,2.91309-3.14258,2.91309-5.0249v-5.7998c0-0.97998,0.79736-1.77734,1.77734-1.77734h6.33105  c0.97998,0,1.77734,0.79736,1.77734,1.77734v5.7998c0,1.88232,1.27979,4.08984,2.91309,5.0249l2.58691,1.08057l0.12061,0.04102  c1.81396,0.49268,4.28125-0.16211,5.61377-1.49316l4.10107-4.10156c0.66699-0.66748,1.84619-0.6665,2.51318,0l4.47754,4.47754  c0.69238,0.69238,0.69189,1.82031,0,2.51367l-4.10156,4.09912c-1.3335,1.33252-1.98975,3.79932-1.49414,5.61621l1.06641,2.5918  l0.05615,0.11377c0.93506,1.6333,3.14209,2.91309,5.02393,2.91309h5.79883c0.97998,0,1.77734,0.79736,1.77734,1.77734v6.33105  c0,0.97998-0.79736,1.77734-1.77734,1.77734h-5.79883c-1.88184,0-4.08887,1.27979-5.02393,2.91309l-1.08154,2.58643  l-0.04102,0.12109c-0.49365,1.81836,0.16162,4.28369,1.49219,5.61328l4.10352,4.10107c0.69238,0.69238,0.69189,1.82031,0,2.51367  l-4.47754,4.47656c-0.33398,0.3335-0.78027,0.51758-1.25684,0.51758c-0.00049,0-0.00049,0-0.00049,0  c-0.47656,0-0.92285-0.18408-1.25635-0.51758l-4.10107-4.1001c-1.3291-1.33057-3.79492-1.98584-5.6123-1.49512l-2.59424,1.06592  l-0.11426,0.05615c-1.6333,0.93506-2.91309,3.14307-2.91309,5.02588v5.79883c0,0.97998-0.79736,1.77734-1.77734,1.77734h-6.33105  c-0.97998,0-1.77734-0.79736-1.77734-1.77734V72.8208c0-1.88281-1.27979-4.09082-2.91309-5.02588l-2.58594-1.08057l-0.12109-0.0415  c-0.40918-0.11084-0.85059-0.16357-1.30518-0.16357c-1.56494,0-3.27832,0.62646-4.30908,1.6582l-4.10107,4.10059  c-0.33301,0.33398-0.7793,0.51758-1.25586,0.51758c0,0,0,0-0.00049,0c-0.47656,0-0.92334-0.18408-1.25684-0.51758l-4.47607-4.47607  c-0.69287-0.69385-0.69287-1.82129-0.00049-2.51416l4.10156-4.10059c1.33008-1.32959,1.98584-3.79541,1.49365-5.61279  l-1.06592-2.59424l-0.05615-0.11426c-0.93506-1.6333-3.14307-2.91309-5.02588-2.91309h-5.79883  c-0.97998,0-1.77734-0.79736-1.77734-1.77734V41.83447z" stroke="none" fill="url('#linearGradientSjzkhy3nhs')" style=""></path>
        </g>
      </svg>
    </g>
    <g transform="matrix(2.148,0,0,2.148,580.7293,30.695)">
      <svg width="116.748046875" height="191" style="overflow: visible;">
        <defs>
          <linearGradient x1="0" y1="0.5" x2="1" y2="0.5" id="linearGradientSjzkhy3nh14">
            <stop offset="0%" stop-color="#306998"></stop>
            <stop offset="100%" stop-color="#306998"></stop>
          </linearGradient>
        </defs>
        <g transform="matrix(1,0,0,1,0,98.25)">
          <path d="M 3.1700000000000035 20.31L 3.1700000000000035 14.11L 11.130000000000004 12.74L 11.130000000000004-45.26L 3.1700000000000035-46.63L 3.1700000000000035-52.83L 19.380000000000003-52.83L 20.260000000000005-46.39Q 22.900000000000002-50  26.680000000000003-51.9Q 30.470000000000002-53.81  35.45-53.81L 35.45-53.81Q 45.260000000000005-53.81  50.71000000000001-46.02Q 56.150000000000006-38.23  56.150000000000006-25.44L 56.150000000000006-25.44L 56.150000000000006-24.41Q 56.150000000000006-12.99  50.68000000000001-5.98Q 45.21000000000001 1.03  35.60000000000001 1.03L 35.60000000000001 1.03Q 30.710000000000004 1.03  27.030000000000005-0.61Q 23.340000000000003-2.25  20.750000000000004-5.47L 20.750000000000004-5.47L 20.750000000000004 12.74L 28.710000000000004 14.11L 28.710000000000004 20.31L 3.1700000000000035 20.31ZM 46.480000000000004-24.41L 46.480000000000004-25.44Q 46.480000000000004-34.47  42.97-40.23Q 39.45-46  32.52000000000001-46L 32.52000000000001-46Q 28.420000000000005-46  25.490000000000002-44.14Q 22.560000000000002-42.29  20.750000000000004-39.06L 20.750000000000004-39.06L 20.750000000000004-13.33Q 22.560000000000002-10.06  25.460000000000004-8.28Q 28.370000000000005-6.49  32.620000000000005-6.49L 32.620000000000005-6.49Q 39.45-6.49  42.97-11.47Q 46.480000000000004-16.46  46.480000000000004-24.41L 46.480000000000004-24.41ZM 114.54976562499999-52.83L 114.54976562499999-46.63L 109.809765625-45.9L 89.699765625 8.11Q 87.699765625 13.43  83.939765625 17.38Q 80.179765625 21.34  73.829765625 21.34L 73.829765625 21.34Q 72.709765625 21.34  70.899765625 21.07Q 69.089765625 20.8  68.119765625 20.56L 68.119765625 20.56L 69.089765625 12.99Q 68.79976562499999 12.94  70.829765625 13.09Q 72.849765625 13.23  73.389765625 13.23L 73.389765625 13.23Q 76.46976562500001 13.23  78.369765625 10.57Q 80.269765625 7.91  81.689765625 4.44L 81.689765625 4.44L 83.979765625-1.03L 66.549765625-45.85L 61.719765625-46.63L 61.719765625-52.83L 83.059765625-52.83L 83.059765625-46.63L 77.099765625-45.65L 86.229765625-19.58L 87.989765625-12.84L 88.279765625-12.84L 99.26976562499999-45.65L 93.259765625-46.63L 93.259765625-52.83L 114.54976562499999-52.83Z" data-textpath="py" data-text-anchor="middle" data-font-size="100" data-letterspacing="0" data-side="left" data-offset="0.5" data-dx="0" data-dy="0" data-xmlspace="preserve" data-href="" data-font="Roboto Slab" data-font-src="/Content/clientfonts/robotoslab.woff" data-font-scale="contain" transform="translate(0,0)" data-x="0" data-y="0" fill="url('#linearGradientSjzkhy3nh14')"></path>
        </g>
      </svg>
    </g>
    <g transform="matrix(2.2825,0,0,2.2825,829.3415,23.1726)">
      <svg width="314.94140625" height="191" style="overflow: visible;">
        <defs>
          <linearGradient x1="0" y1="0.5" x2="1" y2="0.5" id="linearGradientSjzkhy3nh17">
            <stop offset="0%" stop-color="#3a3a3a"></stop>
            <stop offset="100%" stop-color="#3a3a3a"></stop>
          </linearGradient>
        </defs>
        <g transform="matrix(1,0,0,1,0,98.25)">
          <path d="M 4.39-24.41L 4.39-25.44Q 4.39-38.18  9.96-46Q 15.53-53.81  25.34-53.81L 25.34-53.81Q 30.32-53.81  34.08-51.86Q 37.84-49.9  40.38-46.19L 40.38-46.19L 41.26-52.83L 49.37-52.83L 49.37-0.68Q 49.37 9.57  43.65 15.45Q 37.94 21.34  27.39 21.34L 27.39 21.34Q 23.58 21.34  19.14 20.29Q 14.7 19.24  11.33 17.43L 11.33 17.43L 13.82 9.96Q 16.5 11.38  20.17 12.3Q 23.83 13.23  27.29 13.23L 27.29 13.23Q 33.74 13.23  36.74 9.62Q 39.75 6.01  39.75-0.68L 39.75-0.68L 39.75-5.71Q 37.16-2.39  33.54-0.68Q 29.93 1.03  25.24 1.03L 25.24 1.03Q 15.53 1.03  9.96-6.01Q 4.39-13.04  4.39-24.41L 4.39-24.41ZM 14.01-25.44L 14.01-24.41Q 14.01-16.46  17.38-11.62Q 20.75-6.79  27.64-6.79L 27.64-6.79Q 31.98-6.79  34.91-8.76Q 37.84-10.74  39.75-14.36L 39.75-14.36L 39.75-38.67Q 37.89-42.04  34.91-44.02Q 31.93-46  27.73-46L 27.73-46Q 20.85-46  17.43-40.23Q 14.01-34.47  14.01-25.44L 14.01-25.44ZM 85.06179687499997 1.03L 85.06179687499997 1.03Q 74.02179687499998 1.03  67.50179687499997-6.32Q 60.98179687499997-13.67  60.98179687499997-25.39L 60.98179687499997-25.39L 60.98179687499997-27.54Q 60.98179687499997-38.82  67.70179687499997-46.31Q 74.41179687499996-53.81  83.59179687499997-53.81L 83.59179687499997-53.81Q 94.24179687499998-53.81  99.73179687499997-47.36Q 105.22179687499997-40.92  105.22179687499997-30.18L 105.22179687499997-30.18L 105.22179687499997-24.17L 70.95179687499997-24.17L 70.80179687499998-23.93Q 70.95179687499997-16.31  74.66179687499996-11.4Q 78.37179687499997-6.49  85.06179687499997-6.49L 85.06179687499997-6.49Q 89.94179687499997-6.49  93.63179687499996-7.89Q 97.31179687499997-9.28  100.00179687499997-11.72L 100.00179687499997-11.72L 103.76179687499997-5.47Q 100.93179687499997-2.73  96.26179687499997-0.85Q 91.60179687499996 1.03  85.06179687499997 1.03ZM 83.59179687499997-46.24L 83.59179687499997-46.24Q 78.76179687499997-46.24  75.34179687499997-42.16Q 71.92179687499997-38.09  71.14179687499997-31.93L 71.14179687499997-31.93L 71.24179687499998-31.69L 95.60179687499996-31.69L 95.60179687499996-32.96Q 95.60179687499996-38.62  92.58179687499998-42.43Q 89.55179687499998-46.24  83.59179687499997-46.24ZM 114.74156249999997-25.83L 114.74156249999997-26.9Q 114.74156249999997-38.62  121.09156249999997-46.22Q 127.44156249999997-53.81  138.33156249999996-53.81L 138.33156249999996-53.81Q 149.27156249999996-53.81  155.64156249999996-46.24Q 162.01156249999997-38.67  162.01156249999997-26.9L 162.01156249999997-26.9L 162.01156249999997-25.83Q 162.01156249999997-14.01  155.66156249999997-6.49Q 149.31156249999998 1.03  138.43156249999998 1.03L 138.43156249999998 1.03Q 127.44156249999997 1.03  121.09156249999997-6.52Q 114.74156249999997-14.06  114.74156249999997-25.83L 114.74156249999997-25.83ZM 124.36156249999998-26.9L 124.36156249999998-25.83Q 124.36156249999998-17.43  127.90156249999997-11.96Q 131.44156249999997-6.49  138.43156249999998-6.49L 138.43156249999998-6.49Q 145.26156249999997-6.49  148.83156249999996-11.96Q 152.39156249999996-17.43  152.39156249999996-25.83L 152.39156249999996-25.83L 152.39156249999996-26.9Q 152.39156249999996-35.21  148.83156249999996-40.72Q 145.26156249999997-46.24  138.33156249999996-46.24L 138.33156249999996-46.24Q 131.39156249999996-46.24  127.88156249999997-40.72Q 124.36156249999998-35.21  124.36156249999998-26.9L 124.36156249999998-26.9ZM 217.87507812499996 0L 205.27507812499996 0Q 204.83507812499997-2.15  204.58507812499997-3.86Q 204.345078125-5.57  204.24507812499996-7.28L 204.24507812499996-7.28Q 201.46507812499996-3.71  197.28507812499998-1.34Q 193.11507812499997 1.03  188.37507812499996 1.03L 188.37507812499996 1.03Q 180.12507812499996 1.03  175.83507812499997-3Q 171.53507812499998-7.03  171.53507812499998-14.36L 171.53507812499998-14.36Q 171.53507812499998-21.88  177.61507812499997-25.95Q 183.69507812499998-30.03  194.28507812499998-30.03L 194.28507812499998-30.03L 204.19507812499998-30.03L 204.19507812499998-36.18Q 204.19507812499998-40.82  201.26507812499997-43.53Q 198.33507812499997-46.24  193.11507812499997-46.24L 193.11507812499997-46.24Q 189.50507812499998-46.24  186.74507812499996-45.31Q 183.98507812499997-44.38  182.27507812499996-42.77L 182.27507812499996-42.77L 181.24507812499996-37.21L 173.82507812499998-37.21L 173.82507812499998-47.46Q 177.44507812499998-50.34  182.56507812499996-52.08Q 187.69507812499998-53.81  193.70507812499997-53.81L 193.70507812499997-53.81Q 202.68507812499996-53.81  208.25507812499995-49.22Q 213.81507812499996-44.63  213.81507812499996-36.08L 213.81507812499996-36.08L 213.81507812499996-10.64Q 213.81507812499996-9.62  213.845078125-8.64Q 213.86507812499997-7.67  213.96507812499996-6.69L 213.96507812499996-6.69L 217.87507812499996-6.15L 217.87507812499996 0ZM 189.79507812499997-7.03L 189.79507812499997-7.03Q 194.58507812499997-7.03  198.53507812499998-9.33Q 202.49507812499996-11.62  204.19507812499998-14.84L 204.19507812499998-14.84L 204.19507812499998-23.54L 193.94507812499998-23.54Q 188.03507812499998-23.54  184.595078125-20.8Q 181.15507812499996-18.07  181.15507812499996-14.16L 181.15507812499996-14.16Q 181.15507812499996-10.69  183.30507812499997-8.86Q 185.44507812499998-7.03  189.79507812499997-7.03ZM 224.70320312499993 20.31L 224.70320312499993 14.11L 232.66320312499994 12.74L 232.66320312499994-45.26L 224.70320312499993-46.63L 224.70320312499993-52.83L 240.91320312499994-52.83L 241.79320312499993-46.39Q 244.43320312499995-50  248.21320312499995-51.9Q 252.00320312499994-53.81  256.98320312499993-53.81L 256.98320312499993-53.81Q 266.79320312499993-53.81  272.2432031249999-46.02Q 277.6832031249999-38.23  277.6832031249999-25.44L 277.6832031249999-25.44L 277.6832031249999-24.41Q 277.6832031249999-12.99  272.21320312499995-5.98Q 266.7432031249999 1.03  257.13320312499997 1.03L 257.13320312499997 1.03Q 252.24320312499995 1.03  248.56320312499994-0.61Q 244.87320312499995-2.25  242.28320312499994-5.47L 242.28320312499994-5.47L 242.28320312499994 12.74L 250.24320312499995 14.11L 250.24320312499995 20.31L 224.70320312499993 20.31ZM 268.01320312499996-24.41L 268.01320312499996-25.44Q 268.01320312499996-34.47  264.5032031249999-40.23Q 260.98320312499993-46  254.05320312499995-46L 254.05320312499995-46Q 249.95320312499996-46  247.02320312499995-44.14Q 244.09320312499995-42.29  242.28320312499994-39.06L 242.28320312499994-39.06L 242.28320312499994-13.33Q 244.09320312499995-10.06  246.99320312499995-8.28Q 249.90320312499995-6.49  254.15320312499995-6.49L 254.15320312499995-6.49Q 260.98320312499993-6.49  264.5032031249999-11.47Q 268.01320312499996-16.46  268.01320312499996-24.41L 268.01320312499996-24.41ZM 286.43007812499997 0L 286.43007812499997-6.15L 294.38007812499995-7.52L 294.38007812499995-45.26L 286.43007812499997-46.63L 286.43007812499997-52.83L 304.00007812499996-52.83L 304.00007812499996-7.52L 311.96007812499994-6.15L 311.96007812499994 0L 286.43007812499997 0ZM 304.00007812499996-76.17L 304.00007812499996-66.36L 294.38007812499995-66.36L 294.38007812499995-76.17L 304.00007812499996-76.17Z" data-textpath="geoapi" data-text-anchor="middle" data-font-size="100" data-letterspacing="0" data-side="left" data-offset="0.5" data-dx="0" data-dy="0" data-xmlspace="preserve" data-href="" data-font="Roboto Slab" data-font-src="/Content/clientfonts/robotoslab.woff" data-font-scale="contain" transform="translate(0,0)" data-x="0" data-y="0" fill="url('#linearGradientSjzkhy3nh17')"></path>
        </g>
      </svg>
    </g>
  </g>
</svg>